<?xml version="1.0" encoding="utf-8"?>
<!-- Generator: Adobe Illustrator 21.0.0, SVG Export Plug-In . SVG Version: 6.00 Build 0)  -->
<svg version="1.1" id="Capa_1" xmlns="http://www.w3.org/2000/svg" xmlns:xlink="http://www.w3.org/1999/xlink" x="0px" y="0px"
	 viewBox="0 0 24 24" style="enable-background:new 0 0 24 24;" xml:space="preserve">
<style type="text/css">
	.st0{fill:none;stroke:#B0B3B8;stroke-width:1.5;stroke-linecap:round;stroke-linejoin:round;}
	.st1{fill:none;stroke:#242526;stroke-width:1.5;stroke-linecap:round;stroke-linejoin:round;}
</style>
<path class="st0" d="M22,6.8v4c0,2.9-1.3,4.5-4,4.8c0-0.2,0-0.5,0-0.8v-4C18,7.6,16.4,6,13.2,6H6.8C6.5,6,6.3,6,6,6
	c0.2-2.7,1.8-4,4.8-4h6.4C20.4,2,22,3.6,22,6.8z"/>
<path class="st0" d="M13.5,13.3L13.5,13.3"/>
<path class="st0" d="M10,13.3L10,13.3"/>
<path class="st0" d="M6.5,13.3L6.5,13.3"/>
<path class="st1" d="M18,10.8v4c0,0.3,0,0.5,0,0.8c-0.2,2.7-1.8,4-4.8,4h-0.4c-0.3,0-0.5,0.1-0.6,0.3L11,21.5
	c-0.5,0.7-1.4,0.7-1.9,0l-1.2-1.6c-0.1-0.2-0.4-0.3-0.6-0.3H6.8c-3.2,0-4.8-0.8-4.8-4.8v-4C2,7.9,3.4,6.3,6,6c0.2,0,0.5,0,0.8,0h6.4
	C16.4,6,18,7.6,18,10.8z"/>
</svg>
