<?xml version="1.0" encoding="utf-8"?>
<!-- Generator: Adobe Illustrator 21.0.0, SVG Export Plug-In . SVG Version: 6.00 Build 0)  -->
<svg version="1.1" id="Capa_1" xmlns="http://www.w3.org/2000/svg" xmlns:xlink="http://www.w3.org/1999/xlink" x="0px" y="0px"
	 viewBox="0 0 24 24" style="enable-background:new 0 0 24 24;" xml:space="preserve">
<style type="text/css">
	.st0{fill:none;stroke:#B0B3B8;stroke-width:1.5;stroke-linecap:round;stroke-linejoin:round;}
	.st1{fill:none;stroke:#242526;stroke-width:1.5;stroke-linecap:round;stroke-linejoin:round;}
</style>
<path class="st0" d="M22,5.1v11.4c0,1.5-1,2.1-2.3,1.4L16,15.8V9c0-1.7-1.4-3.1-3.1-3.1H8V5.1C8,3.4,9.4,2,11.1,2h7.8
	C20.6,2,22,3.4,22,5.1z"/>
<path class="st1" d="M16,9v11.4c0,1.5-1,2.1-2.3,1.4l-3.9-2.2c-0.4-0.2-1.1-0.2-1.5,0l-3.9,2.2C3,22.4,2,21.8,2,20.3V9
	c0-1.7,1.4-3.1,3.1-3.1h7.8C14.6,5.9,16,7.3,16,9z"/>
<g>
	<path class="st0" d="M7,12h4"/>
	<path class="st0" d="M9,14v-4"/>
</g>
</svg>
