<?xml version="1.0" encoding="utf-8"?>
<!-- Generator: Adobe Illustrator 21.0.0, SVG Export Plug-In . SVG Version: 6.00 Build 0)  -->
<svg version="1.1" id="Capa_1" xmlns="http://www.w3.org/2000/svg" xmlns:xlink="http://www.w3.org/1999/xlink" x="0px" y="0px"
	 viewBox="0 0 20 20" style="enable-background:new 0 0 20 20;" xml:space="preserve">
<style type="text/css">
	.st0{fill:none;stroke:#B0B3B8;stroke-width:1.25;stroke-miterlimit:10;}
	.st1{fill:none;stroke:#242526;stroke-width:1.25;stroke-linecap:round;stroke-miterlimit:10;}
	.st2{fill:none;stroke:#242526;stroke-width:1.25;stroke-linecap:round;stroke-linejoin:round;stroke-miterlimit:10;}
</style>
<path class="st0" d="M12.8,16.4c0,1.5-1.2,2.7-2.7,2.7c-0.7,0-1.4-0.3-1.9-0.8s-0.8-1.2-0.8-1.9"/>
<path class="st1" d="M10,1.7c-3,0-5.5,2.5-5.5,5.5v2.6c0,0.6-0.2,1.4-0.5,1.9l-1,1.7c-0.6,1.1-0.2,2.3,1,2.7c3.9,1.3,8.2,1.3,12.1,0
	c1.1-0.4,1.6-1.7,1-2.7l-1-1.7c-0.3-0.5-0.5-1.3-0.5-1.9V7.2C15.5,4.2,13,1.7,10,1.7z"/>
<path class="st2" d="M11.7,2c-0.3-0.1-0.6-0.1-0.9-0.2C10,1.7,9.1,1.7,8.3,2c0.3-0.7,1-1.2,1.7-1.2S11.4,1.3,11.7,2z"/>
</svg>
