<?xml version="1.0" encoding="utf-8"?>
<!-- Generator: Adobe Illustrator 21.0.0, SVG Export Plug-In . SVG Version: 6.00 Build 0)  -->
<svg version="1.1" id="Capa_1" xmlns="http://www.w3.org/2000/svg" xmlns:xlink="http://www.w3.org/1999/xlink" x="0px" y="0px"
	 viewBox="0 0 24 24" style="enable-background:new 0 0 24 24;" xml:space="preserve">
<style type="text/css">
	.st0{fill:none;stroke:#242526;stroke-width:1.5;stroke-linecap:round;stroke-linejoin:round;}
	.st1{fill:#B0B3B8;}
</style>
<path class="st0" d="M22,13v4c0,3.5-2,5-5,5H7c-3,0-5-1.5-5-5v-4c0-2.6,1.2-4.1,3-4.7C5.6,8.1,6.3,8,7,8h10c0.7,0,1.4,0.1,2,0.3
	C20.9,8.9,22,10.4,22,13z"/>
<path class="st0" d="M19,7v1.3C18.4,8.1,17.7,8,17,8H7C6.3,8,5.6,8.1,5,8.3V7c0-1.1,0.9-2,2-2h10C18.1,5,19,5.9,19,7z"/>
<path class="st0" d="M16,3.5V5H8V3.5C8,2.7,8.7,2,9.5,2h5C15.3,2,16,2.7,16,3.5z"/>
<path class="st1" d="M8,15v-1.8c0-2.2,1.6-3.1,3.5-2l1.5,0.9l1.5,0.9c1.9,1.1,1.9,2.9,0,4L13,17.9l-1.5,0.9C9.6,19.9,8,19,8,16.8V15
	z"/>
</svg>
