<?xml version="1.0" encoding="utf-8"?>
<!-- Generator: Adobe Illustrator 21.0.0, SVG Export Plug-In . SVG Version: 6.00 Build 0)  -->
<svg version="1.1" id="Capa_1" xmlns="http://www.w3.org/2000/svg" xmlns:xlink="http://www.w3.org/1999/xlink" x="0px" y="0px"
	 viewBox="0 0 21 21" style="enable-background:new 0 0 21 21;" xml:space="preserve">
<style type="text/css">
	.st0{fill:url(#SVGID_1_);}
	.st1{fill:#FFFFFF;}
</style>
<linearGradient id="SVGID_1_" gradientUnits="userSpaceOnUse" x1="0.377" y1="0.456" x2="21.7103" y2="21.6227">
	<stop  offset="0" style="stop-color:#FED302"/>
	<stop  offset="1" style="stop-color:#E4A424"/>
</linearGradient>
<path class="st0" d="M19.7,21H1.3C0.6,21,0,20.4,0,19.7V1.3C0,0.6,0.6,0,1.3,0h18.3C20.4,0,21,0.6,21,1.3v18.3
	C21,20.4,20.4,21,19.7,21z"/>
<g>
	<circle class="st1" cx="17.5" cy="6.9" r="0.8"/>
	<circle class="st1" cx="15.6" cy="4.3" r="0.8"/>
	<circle class="st1" cx="12.8" cy="2.8" r="0.8"/>
	<g>
		<path class="st1" d="M9.1,14.5c-0.5,0-0.9-0.1-1.3-0.3c-0.9-0.5-1.4-1.5-1.4-2.8V8.3C6.5,7,7,6,7.9,5.5C8.8,5,9.9,5.1,11,5.7
			l2.7,1.5c1.1,0.6,1.7,1.6,1.7,2.6s-0.6,1.9-1.7,2.6L11,14C10.4,14.3,9.7,14.5,9.1,14.5z M9.2,7C9,7,8.9,7,8.8,7.1
			C8.5,7.3,8.3,7.7,8.3,8.3v3.1c0,0.6,0.2,1.1,0.5,1.2c0.3,0.2,0.8,0.1,1.3-0.2l2.7-1.5c0.5-0.3,0.8-0.7,0.8-1c0-0.3-0.3-0.7-0.8-1
			l-2.7-1.5C9.7,7.1,9.4,7,9.2,7z"/>
	</g>
	<g>
		<g>
			<path class="st1" d="M10.5,19.1c-4.8,0-8.6-3.9-8.6-8.6c0-0.5,0.4-0.9,0.9-0.9s0.9,0.4,0.9,0.9c0,3.8,3.1,6.8,6.8,6.8
				s6.8-3.1,6.8-6.8c0-0.5,0.4-0.9,0.9-0.9s0.9,0.4,0.9,0.9C19.1,15.2,15.3,19.1,10.5,19.1z"/>
		</g>
	</g>
</g>
</svg>
