<svg width="283" height="297" viewBox="0 0 283 297" fill="none" xmlns="http://www.w3.org/2000/svg">
<path d="M136.644 155.628C120.976 139.59 101.826 131.868 80.355 131.868C58.8841 131.868 40.8949 139.59 25.2269 155.628C9.55886 171.666 2.01501 191.268 2.01501 213.84C2.01501 236.412 9.55886 255.42 25.2269 271.458C40.3146 287.496 59.4644 295.218 80.355 295.218C101.246 295.218 120.976 287.496 136.644 271.458C152.312 255.42 159.275 236.412 159.275 213.84C159.275 190.08 151.731 171.666 136.644 155.628ZM109.95 243.54C102.406 252.45 91.9609 256.014 80.9353 256.014C69.9097 256.014 59.4643 251.856 51.9205 243.54C44.3766 234.63 39.7343 224.532 39.7343 213.246C39.7343 200.772 43.7963 190.674 51.9205 182.952C59.4643 174.042 69.9097 170.478 80.9353 170.478C92.5412 169.884 102.406 174.042 110.53 182.952C118.074 190.674 122.136 201.366 122.717 213.246C121.556 224.532 118.074 234.63 109.95 243.54Z" fill="url(#paint0_linear_653_1558)" fill-opacity="0.4"/>
<path d="M233.206 19.0894L142.165 112.386L166.388 137.153L257.429 43.8564L233.206 19.0894Z" fill="url(#paint1_linear_653_1558)" fill-opacity="0.4"/>
<path d="M102.986 0H68.749V100.386H102.986V0Z" fill="url(#paint2_linear_653_1558)" fill-opacity="0.4"/>
<path d="M282.298 175.824H182.487V210.87H282.298V175.824Z" fill="url(#paint3_linear_653_1558)" fill-opacity="0.4"/>
<defs>
<linearGradient id="paint0_linear_653_1558" x1="80.6452" y1="131.868" x2="80.6452" y2="295.218" gradientUnits="userSpaceOnUse">
<stop stop-color="#E30613"/>
<stop offset="1" stop-color="#242526"/>
</linearGradient>
<linearGradient id="paint1_linear_653_1558" x1="187.685" y1="65.7377" x2="212.473" y2="89.9261" gradientUnits="userSpaceOnUse">
<stop stop-color="#E30613"/>
<stop offset="1" stop-color="#242526"/>
</linearGradient>
<linearGradient id="paint2_linear_653_1558" x1="85.8678" y1="0" x2="85.8678" y2="100.386" gradientUnits="userSpaceOnUse">
<stop stop-color="#E30613"/>
<stop offset="1" stop-color="#242526"/>
</linearGradient>
<linearGradient id="paint3_linear_653_1558" x1="232.393" y1="175.824" x2="232.393" y2="210.87" gradientUnits="userSpaceOnUse">
<stop stop-color="#E30613"/>
<stop offset="1" stop-color="#242526"/>
</linearGradient>
</defs>
</svg>
