<svg width="132" height="27" viewBox="0 0 132 27" fill="none" xmlns="http://www.w3.org/2000/svg">
<g clip-path="url(#clip0_653_1542)">
<path d="M55.2575 14.0667C53.9266 12.6946 52.2999 12.0339 50.4761 12.0339C48.6523 12.0339 47.1242 12.6946 45.7933 14.0667C44.4623 15.4388 43.8215 17.1158 43.8215 19.0469C43.8215 20.978 44.4623 22.6041 45.7933 23.9762C47.0749 25.3483 48.7015 26.009 50.4761 26.009C52.2506 26.009 53.9266 25.3483 55.2575 23.9762C56.5884 22.6041 57.1799 20.978 57.1799 19.0469C57.1799 17.0141 56.5391 15.4388 55.2575 14.0667ZM52.99 21.5878C52.3492 22.3501 51.462 22.655 50.5254 22.655C49.5888 22.655 48.7015 22.2992 48.0607 21.5878C47.4199 20.8255 47.0256 19.9616 47.0256 18.996C47.0256 17.9289 47.3706 17.065 48.0607 16.4043C48.7015 15.642 49.5888 15.3371 50.5254 15.3371C51.5112 15.2863 52.3492 15.642 53.0393 16.4043C53.6801 17.065 54.0252 17.9797 54.0745 18.996C53.9759 19.9616 53.6801 20.8255 52.99 21.5878Z" fill="#E30613"/>
<path d="M8.23194 8.57837C5.96446 8.52755 3.99274 9.39147 2.36607 11.1193C0.788689 12.7963 0 14.7782 0 17.2175C0 19.5551 0.788689 21.6387 2.41536 23.3157C4.04203 24.9927 5.91517 25.8058 8.28123 25.8058C10.1544 25.8058 11.8303 25.2468 13.2598 24.078C14.6893 22.9091 15.6752 21.3338 16.1681 19.5551H12.8162C12.3726 20.419 11.781 21.1813 10.9924 21.7403C10.1544 22.2993 9.26709 22.5534 8.23194 22.5534C6.80244 22.5534 5.57012 21.9944 4.63355 20.978C3.59839 19.9109 3.10546 18.6912 3.10546 17.2683C3.10546 15.7946 3.59839 14.5241 4.63355 13.4569C5.61941 12.4406 6.80244 11.8816 8.23194 11.8816C9.2178 11.8816 10.1051 12.1865 10.9924 12.7455C11.781 13.3045 12.3726 14.0668 12.8162 14.9307H16.1681C15.6752 13.0504 14.7386 11.5767 13.2598 10.4078C11.8303 9.13737 10.0558 8.52755 8.23194 8.57837Z" fill="#E30613"/>
<path d="M28.6392 11.9324C26.4703 11.8816 24.9422 12.4914 24.1043 13.6602C23.562 14.4225 23.2663 15.3372 23.217 16.5568H26.421C26.4703 15.9978 26.6675 15.6421 26.914 15.388C27.259 14.9307 27.8012 14.7274 28.5899 14.7782C29.2307 14.7274 29.773 14.8798 30.1673 15.0831C30.5124 15.2864 30.7095 15.6421 30.7095 16.2011C30.7095 16.6585 30.4631 17.0142 29.9701 17.2175L27.5055 17.6749C26.3717 17.8781 25.4352 18.1322 24.7451 18.5388C23.562 19.301 22.9212 20.4699 23.0198 22.1469C22.9705 23.3157 23.3649 24.2812 24.1043 24.9927C24.7451 25.5517 25.6816 25.8566 26.7661 25.9074C28.4913 25.8566 29.9208 25.3992 30.9067 24.5353V25.9074H34.1107V16.0995C34.1107 14.4733 33.5685 13.3553 32.4841 12.7963C31.2025 12.1865 30.0194 11.9324 28.6392 11.9324ZM29.9701 19.4535L30.5616 19.0978V20.4699C30.5616 21.5879 30.2659 22.401 29.6744 22.8075C29.0829 23.2649 28.3927 23.4681 27.7026 23.4681C27.2097 23.4681 26.8647 23.3665 26.5689 23.1124C26.2731 22.8075 26.076 22.4518 26.076 21.7911C26.076 21.1305 26.3224 20.6731 26.8647 20.3174C27.1604 20.1141 27.7026 19.9617 28.3927 19.86L29.9701 19.4535Z" fill="#E30613"/>
<path d="M20.9988 8.57837H17.7948V25.8566H20.9988V8.57837Z" fill="#E30613"/>
<path d="M41.4555 12.4406C40.6175 12.7963 39.8288 13.3553 39.188 14.3208V12.6438H36.1318V25.8566H39.3359V19.5043C39.3359 18.4371 39.4345 17.624 39.7795 17.2175C40.026 16.7093 40.371 16.3028 40.864 15.9979C41.4062 15.6421 41.9977 15.4388 42.5892 15.4388L43.5751 15.4897V12.1357L42.7371 12.0848L41.4555 12.4406Z" fill="#E30613"/>
<path d="M63.4599 2.38541L55.7264 10.3672L57.7841 12.4861L65.5175 4.50429L63.4599 2.38541Z" fill="#E30613"/>
<path d="M52.3985 0.752319H49.4902V9.34062H52.3985V0.752319Z" fill="#E30613"/>
<path d="M67.63 15.7946H59.1516V18.7928H67.63V15.7946Z" fill="#E30613"/>
<path d="M76.2071 21.2829L78.721 11.9324H82.5166L77.9324 25.8566H74.4818L69.8976 11.9324H73.6931L76.2071 21.2829Z" fill="#252525"/>
<path d="M84.094 8.32428C84.094 7.71446 84.2912 7.30792 84.6855 6.90137C85.0799 6.49483 85.5235 6.39319 86.1643 6.39319C86.8051 6.39319 87.2487 6.54564 87.6431 6.90137C87.9881 7.2571 88.2346 7.71446 88.2346 8.32428C88.2346 8.9341 88.0374 9.34065 87.6431 9.7472C87.2487 10.1537 86.8051 10.2554 86.1643 10.2554C85.5235 10.2554 85.0799 10.1029 84.6855 9.7472C84.1926 9.28983 84.094 8.83247 84.094 8.32428ZM87.8403 25.8058H84.1926V11.8307H87.8403V25.8058Z" fill="#252525"/>
<path d="M90.3049 18.6912C90.3049 16.5568 90.7979 14.7782 91.7344 13.5077C92.671 12.2373 93.9526 11.5766 95.5793 11.5766C96.8609 11.5766 97.9947 12.0848 98.8819 13.1012V6.08826H102.53V25.8566H99.227L99.0791 24.3829C98.1425 25.5517 97.0088 26.1615 95.5793 26.1615C94.0019 26.1615 92.7203 25.5009 91.7344 24.2304C90.7979 22.8583 90.3049 21.0797 90.3049 18.6912ZM93.854 18.9961C93.854 20.3174 94.0512 21.2829 94.4948 22.0452C94.9385 22.7059 95.5793 23.0616 96.4173 23.0616C97.551 23.0616 98.3397 22.5534 98.7833 21.5878V16.0487C98.3397 15.0831 97.551 14.5749 96.4173 14.5749C94.7413 14.6766 93.854 16.0487 93.854 18.9961Z" fill="#252525"/>
<path d="M111.501 26.1106C109.48 26.1106 107.903 25.5008 106.621 24.2812C105.389 23.0107 104.748 21.3337 104.748 19.2502V18.8944C104.748 17.4715 105.044 16.2519 105.536 15.1339C106.029 14.0159 106.818 13.2028 107.755 12.5421C108.691 11.8815 109.825 11.6782 111.057 11.6782C112.93 11.6782 114.36 12.288 115.444 13.4569C116.529 14.6257 117.022 16.3535 117.022 18.5387V20.0632H108.445C108.593 20.9272 108.938 21.6894 109.529 22.2993C110.121 22.8074 110.909 23.1123 111.747 23.1123C113.128 23.1123 114.261 22.6042 115.05 21.5878L116.825 23.6713C116.233 24.4844 115.543 25.0943 114.606 25.5008C113.621 25.8565 112.635 26.1106 111.501 26.1106ZM111.057 14.6765C110.318 14.6765 109.776 14.8798 109.332 15.4388C108.888 15.947 108.593 16.6076 108.494 17.5731H113.522V17.2682C113.522 16.4551 113.325 15.7945 112.881 15.3371C112.388 14.8798 111.846 14.6765 111.057 14.6765Z" fill="#252525"/>
<path d="M118.55 18.6912C118.55 17.2683 118.846 16.0995 119.338 14.9815C119.831 13.8634 120.62 13.0504 121.557 12.4914C122.493 11.9324 123.627 11.6274 124.909 11.6274C126.683 11.6274 128.211 12.2373 129.345 13.3044C130.479 14.3716 131.12 16.0486 131.267 18.0306V18.9961C131.267 21.1305 130.676 22.8075 129.542 24.1796C128.408 25.5517 126.831 26.1107 124.909 26.1107C122.986 26.1107 121.409 25.45 120.275 24.1796C119.141 22.9091 118.55 21.1305 118.55 18.9453V18.6912ZM122.148 18.9961C122.148 20.3174 122.345 21.3337 122.888 22.0452C123.381 22.8075 124.021 23.0616 124.958 23.0616C125.796 23.0616 126.535 22.7058 127.028 22.0452C127.521 21.3846 127.768 20.2666 127.768 18.742C127.768 17.4207 127.57 16.4552 127.028 15.6929C126.535 14.9306 125.796 14.5749 124.958 14.5749C124.12 14.5749 123.381 14.9306 122.888 15.5913C122.345 16.4044 122.148 17.5224 122.148 18.9961Z" fill="#252525"/>
</g>
<defs>
<clipPath id="clip0_653_1542">
<rect width="131.267" height="25.4092" fill="white" transform="translate(0 0.752319)"/>
</clipPath>
</defs>
</svg>
