<?xml version="1.0" encoding="utf-8"?>
<!-- Generator: Adobe Illustrator 21.0.0, SVG Export Plug-In . SVG Version: 6.00 Build 0)  -->
<svg version="1.1" id="Capa_1" xmlns="http://www.w3.org/2000/svg" xmlns:xlink="http://www.w3.org/1999/xlink" x="0px" y="0px"
	 viewBox="0 0 86 86" style="enable-background:new 0 0 86 86;" xml:space="preserve">
<style type="text/css">
	.st0{fill:#FBCD07;}
	.st1{fill:url(#SVGID_1_);}
	.st2{fill:url(#SVGID_2_);}
</style>
<title>logotype</title>
<g>
	<ellipse class="st0" cx="77.8" cy="24.9" rx="4" ry="4.1"/>
	<ellipse class="st0" cx="68.2" cy="12" rx="4" ry="4.1"/>
	<ellipse class="st0" cx="54.1" cy="4.1" rx="4" ry="4.1"/>
	
		<linearGradient id="SVGID_1_" gradientUnits="userSpaceOnUse" x1="23.1766" y1="-27.6199" x2="67.2615" y2="-27.6199" gradientTransform="matrix(1 0 0 1 0 67.3099)">
		<stop  offset="0" style="stop-color:#FED302"/>
		<stop  offset="1" style="stop-color:#E4A424"/>
	</linearGradient>
	<path class="st1" d="M36.2,63.2c-2.2,0-4.3-0.5-6.2-1.7c-4.3-2.5-6.8-7.6-6.8-14V32c0-6.5,2.5-11.5,6.8-14.1s10-2.1,15.4,1.1
		l13.3,7.8c5.5,3.2,8.6,7.9,8.6,13s-3.2,9.7-8.6,12.9l-13.3,7.7C42.3,62.3,39.2,63.2,36.2,63.2z M36.3,25.4c-0.6,0-1.3,0.1-1.8,0.4
		c-1.5,0.9-2.3,3.1-2.3,6.2v15.5c0,3.1,0.8,5.4,2.3,6.2c1.5,0.9,3.7,0.5,6.4-1.1l13.3-7.7c2.6-1.5,4.1-3.4,4.1-5.1
		c0-1.7-1.5-3.6-4.1-5.1L41,26.9C39.2,25.9,37.6,25.4,36.3,25.4z"/>
	
		<linearGradient id="SVGID_2_" gradientUnits="userSpaceOnUse" x1="0" y1="-5.2926" x2="85.8028" y2="-5.2926" gradientTransform="matrix(1 0 0 1 0 67.3099)">
		<stop  offset="0" style="stop-color:#FED302"/>
		<stop  offset="1" style="stop-color:#E4A424"/>
	</linearGradient>
	<path class="st2" d="M42.9,86C19.3,86,0,66.5,0,42.6C0,40.1,2,38,4.5,38s4.5,2,4.5,4.6c0,18.9,15.2,34.3,33.9,34.3
		s33.9-15.4,33.9-34.3c0-2.5,2-4.6,4.5-4.6c2.5,0,4.5,2,4.5,4.6C85.8,66.5,66.6,86,42.9,86z"/>
</g>
</svg>
