<svg width="96" height="28" viewBox="0 0 96 28" fill="none" xmlns="http://www.w3.org/2000/svg">
<path d="M93.4093 18.757C92.6417 18.0854 91.8261 17.078 90.9626 15.6868L88.5638 11.897C90.4348 11.2254 91.7782 10.4579 92.6417 9.5464C93.5053 8.63494 93.9371 7.53159 93.9371 6.28432C93.9371 4.36545 93.1695 2.87833 91.6342 1.87092C90.099 0.863514 87.5083 0.383797 83.9101 0.383797C83.1425 0.383797 82.5188 0.383797 82.087 0.431768L78.6807 0.47974C77.9611 0.47974 76.8576 0.47974 75.3224 0.431768V1.91889C76.138 1.96686 76.6657 2.11078 77.0015 2.25469C77.3374 2.39861 77.4813 2.68644 77.4813 3.07021V11.7531V18.4691C77.4813 18.5651 77.4813 18.661 77.4333 18.757V21.0596C78.2489 21.0596 79.2084 21.0596 80.2639 21.0596C82.5668 21.0596 84.2939 21.0596 85.4453 21.1076V19.6205C84.4858 19.5725 83.8141 19.4286 83.4783 19.2847C83.1425 19.1408 82.9506 18.8529 82.9506 18.4212V13.3841L83.6702 13.2402H83.7182L86.6447 17.3658C87.5083 18.6131 88.4198 19.5245 89.4273 20.1002C90.3868 20.6758 91.2984 21.0117 92.114 21.1556C92.9296 21.2995 93.9371 21.3475 95.0885 21.3475L96 19.8603C95.0405 19.8124 94.177 19.4286 93.4093 18.757ZM87.5083 9.8822C86.5967 10.7937 85.2534 11.4173 83.4783 11.7051L82.9985 11.8011V1.91889C83.3824 1.91889 84.102 1.87092 85.1575 1.87092C86.4048 1.87092 87.3644 2.2547 87.988 2.97427C88.6117 3.74182 88.9476 4.7972 88.9476 6.14041C88.8516 7.72347 88.4198 8.92277 87.5083 9.8822Z" fill="#E4E6EB"/>
<path d="M18.3748 18.661C19.1424 19.3326 20.006 19.7164 20.9175 19.8123L20.006 21.2994C18.8546 21.2994 17.8471 21.2515 17.0315 21.1076C16.2159 20.9636 15.3043 20.6278 14.3448 20.0522C13.3853 19.4765 12.4738 18.5651 11.5622 17.3178L8.63568 13.1922L7.91604 13.3361V18.3732C7.91604 18.7569 8.10794 19.0448 8.44377 19.2367C8.77961 19.3806 9.45127 19.5245 10.4108 19.5725V21.0596C9.25937 21.0116 7.53223 21.0116 5.22938 21.0116C2.92653 21.0116 1.15142 21.0116 0 21.0596V19.5725C0.95952 19.5245 1.58321 19.3806 1.91904 19.2367C2.25487 19.0927 2.3988 18.8049 2.3988 18.3732V2.92627C2.3988 2.54249 2.25487 2.25466 1.91904 2.11075C1.63118 1.96683 1.05547 1.82292 0.287856 1.77494V0.287821C1.82309 0.335793 2.92654 0.335793 3.64617 0.335793L7.05247 0.287821C7.53223 0.287821 8.15592 0.239849 8.87556 0.239849C12.5217 0.239849 15.1124 0.719567 16.5997 1.72697C18.1349 2.73438 18.9025 4.17353 18.9025 6.14037C18.9025 7.38764 18.4708 8.49099 17.6072 9.40245C16.7436 10.3139 15.4003 11.0815 13.5292 11.7531L15.928 15.5428C16.7916 16.982 17.6072 17.9894 18.3748 18.661ZM7.91604 11.6571L8.3958 11.5612C10.2189 11.2734 11.5622 10.6977 12.4258 9.73826C13.3373 8.82679 13.7691 7.57953 13.7691 6.0924C13.7691 4.70122 13.4333 3.64584 12.8096 2.92627C12.1859 2.15872 11.2264 1.82292 9.979 1.82292C8.92353 1.82292 8.20389 1.82292 7.82009 1.87089V11.6571H7.91604Z" fill="#E4E6EB"/>
<path d="M39.7241 15.4949C39.7241 17.3658 38.9086 18.8049 37.2774 19.8123C35.6462 20.7718 33.1994 21.2994 29.985 21.2994H19.3344V19.8123C20.2939 19.7643 20.9176 19.6204 21.2534 19.4765C21.5892 19.3326 21.7332 19.0448 21.7332 18.613V3.21409C21.7332 2.83032 21.5892 2.54249 21.2534 2.39857C20.9176 2.25466 20.3898 2.11074 19.5742 2.06277V0.575647C21.1095 0.623619 22.1649 0.623619 22.8366 0.623619L26.099 0.575647C26.5308 0.575647 27.1065 0.527676 27.7781 0.527676C34.2549 0.527676 37.4693 2.25466 37.4693 5.7566C37.4693 6.66806 37.1334 7.48358 36.5098 8.25113C35.8861 9.01868 34.9265 9.59434 33.5832 9.97811C37.7092 10.8416 39.7241 12.6645 39.7241 15.4949ZM27.2984 9.97811C28.5937 9.73825 29.6492 9.45042 30.3688 9.11462C31.1364 8.77882 31.6642 8.34707 31.952 7.81938C32.2879 7.29169 32.4318 6.62009 32.4318 5.80457C32.4318 3.31004 31.2324 2.06277 28.8336 2.06277C28.066 2.06277 27.5382 2.06277 27.2504 2.11074V9.97811H27.2984ZM34.2549 15.4469C34.2549 14.0557 33.8711 13.0003 33.1514 12.2328C32.4318 11.5132 31.2324 11.1294 29.6012 11.1294L27.2984 11.5612V18.4211C27.2984 18.9009 27.3943 19.1887 27.5862 19.3806C27.7781 19.5245 28.2099 19.6204 28.9295 19.6204H30.033C32.8156 19.6684 34.2549 18.2292 34.2549 15.4469Z" fill="#E4E6EB"/>
<path d="M76.5697 15.1591C75.8021 17.3658 75.4183 19.4285 75.4183 21.2994C73.5472 21.2515 70.8606 21.2515 67.3103 21.2515C63.8081 21.2515 61.1214 21.2515 59.3943 21.2994V19.9083C60.3538 19.8603 60.9775 19.7164 61.3133 19.5245C61.6492 19.3326 61.8411 19.0448 61.8411 18.613V3.26207C61.8411 2.87829 61.6492 2.59046 61.3133 2.39858C60.9775 2.20669 60.3058 2.11075 59.3463 2.0148V0.575649C61.6492 0.623621 63.4243 0.623621 64.6237 0.623621C65.8231 0.623621 67.5502 0.623621 69.8531 0.575649V2.06277C68.8935 2.11075 68.2219 2.25466 67.886 2.39858C67.5022 2.54249 67.3103 2.87829 67.3103 3.26207V19.0448C67.3103 19.2367 67.3583 19.3806 67.5022 19.4765C67.6462 19.5725 67.7901 19.6204 67.934 19.6204H69.1334C70.5247 19.6204 71.5322 19.4765 72.1559 19.1887C72.7796 18.9009 73.3073 18.2772 73.7391 17.4137L74.7946 15.1591H76.5697Z" fill="#E4E6EB"/>
<path d="M63.8561 17.8935L62.5128 19.1887C62.5128 19.1887 60.8816 20.2441 58.3869 18.3732C58.147 18.1813 57.9071 17.9894 57.6193 17.7495C58.3389 16.3104 58.6747 15.0631 58.6747 13.9118C58.6747 12.9524 58.3869 12.0889 57.8591 11.4173C57.4274 10.8896 56.8516 10.6018 56.228 10.6018C55.7962 10.6018 55.4124 10.7457 55.0286 10.9855C54.5008 11.4173 54.2609 11.945 54.2609 12.5206C54.2609 12.9524 54.4049 13.3841 54.6927 13.7199C55.1245 14.1996 55.6043 14.4395 56.228 14.4395C56.6597 14.4395 57.0436 14.2956 57.4274 14.0078C57.2355 14.9672 56.8996 15.8786 56.3719 16.6942C50.087 11.4173 46.9686 7.53157 46.9686 4.98906C46.9686 4.02963 47.2085 3.26208 47.7362 2.63845C48.3599 1.96684 49.1275 1.63104 50.087 1.63104C51.1905 1.63104 52.102 1.96684 52.7737 2.59047C52.5818 2.5425 52.3899 2.5425 52.15 2.5425C51.5263 2.5425 50.9026 2.78236 50.3269 3.26208C49.7032 3.83774 49.4154 4.55732 49.4154 5.42081C49.4154 6.04444 49.6552 6.66807 50.135 7.24373C50.7107 7.86737 51.4304 8.1552 52.198 8.1552C53.1095 8.1552 53.8771 7.77142 54.5008 7.00388C54.9326 6.38024 55.1725 5.66067 55.1725 4.79717C55.1725 3.7418 54.8367 2.73439 54.117 1.8709C53.0136 0.623633 51.4304 0 49.3194 0C48.168 0 47.0645 0.191887 46.0091 0.575661C43.5623 1.5351 42.3629 3.16614 42.3629 5.51675C42.3629 6.76402 42.8427 8.20317 43.8022 9.83421C41.4034 11.0815 40.252 12.7125 40.252 14.7753V15.1111C40.252 16.4063 40.7797 17.6536 41.8352 18.8049C42.6508 19.5245 43.5143 20.1481 44.4738 20.5799C46.153 21.2995 47.8322 21.6353 49.5113 21.6353C50.8067 21.6353 52.054 21.4434 53.2534 21.0116C53.7812 20.8197 54.2609 20.6279 54.5968 20.436C54.6927 20.5319 54.7887 20.5799 54.9326 20.6279C54.9806 20.6758 55.0286 20.6758 55.0765 20.7238C55.7002 21.0116 56.2759 21.2515 56.8517 21.3954C56.8517 21.3954 56.8517 21.3954 56.8996 21.3954C57.1395 21.4434 57.4274 21.4913 57.6672 21.5393C57.7152 21.5393 57.7632 21.5393 57.7632 21.5393C58.0511 21.5873 58.2909 21.5873 58.5308 21.5873H60.9296C61.2654 21.5393 61.6493 21.4913 62.0331 21.4434C62.4648 21.3954 62.8486 21.2995 63.3284 21.1555L65.3914 17.7975H63.8561V17.8935ZM53.1575 19.4286C52.246 19.7644 51.4304 19.9562 50.7107 19.9562C49.9911 19.9562 49.2235 19.7644 48.3599 19.4286C47.1125 18.9009 46.249 18.0854 45.7212 17.03C45.5773 16.6462 45.4813 16.4063 45.4813 16.3584C45.3854 16.1185 45.3374 15.351 45.3374 13.9598C45.3374 13.1922 45.3854 12.5686 45.4334 12.0889C45.8651 12.6166 46.3449 13.1443 46.9206 13.7679C47.2565 14.1037 47.4484 14.2956 47.4484 14.3436C49.2235 16.0705 51.1425 17.7495 53.2055 19.3806C53.2055 19.3806 53.2055 19.4286 53.1575 19.4286Z" fill="#E4E6EB"/>
<path d="M2.35082 25.7129C2.49475 25.8568 2.5907 26.0487 2.5907 26.2405C2.5907 26.5284 2.49475 26.7203 2.25487 26.8642C2.01499 27.0081 1.72714 27.104 1.34333 27.104H0V26.9601C0.143928 26.9601 0.23988 26.9122 0.287856 26.9122C0.335832 26.8642 0.335832 26.8642 0.335832 26.7682V24.5136C0.335832 24.4176 0.287856 24.3696 0.23988 24.3217C0.191904 24.2737 0.095952 24.2257 0 24.2257V24.0818C0.191904 24.0818 0.335832 24.0818 0.383808 24.0818H0.767616C0.815592 24.0818 0.95952 24.0818 1.05547 24.0818C1.48726 24.0818 1.77511 24.1298 1.96702 24.2737C2.15892 24.4176 2.2069 24.5615 2.2069 24.8014C2.2069 24.9453 2.15892 25.0413 2.06297 25.1372C1.96702 25.2331 1.82309 25.3291 1.63118 25.425C1.96702 25.473 2.2069 25.5689 2.35082 25.7129ZM0.815592 25.521C1.05547 25.473 1.29535 25.425 1.43928 25.3771C1.58321 25.3291 1.67916 25.2331 1.72714 25.1852C1.77511 25.0892 1.82309 24.9933 1.82309 24.8494C1.82309 24.7055 1.77511 24.5615 1.67916 24.4176C1.58321 24.3217 1.3913 24.2737 1.1994 24.2737C1.05547 24.2737 0.911544 24.2737 0.863568 24.2737V25.521H0.815592ZM1.91904 26.7682C2.06297 26.6723 2.11094 26.4804 2.11094 26.2405C2.11094 26.0966 2.06297 26.0007 2.01499 25.8568C1.96702 25.7608 1.87106 25.6649 1.77511 25.6169C1.67916 25.5689 1.53523 25.521 1.3913 25.521L0.767616 25.6169V26.7682C0.767616 26.8162 0.767616 26.8642 0.767616 26.8642C0.767616 26.8642 0.815592 26.9122 0.863568 26.9122C0.911544 26.9122 0.95952 26.9122 1.05547 26.9122H1.29535C1.58321 26.9601 1.77511 26.9122 1.91904 26.7682Z" fill="#E4E6EB"/>
<path d="M5.85302 26.8162C5.99694 26.9122 6.0929 27.0081 6.18885 27.0081L6.0929 27.152C5.90099 27.152 5.70909 27.1041 5.56516 27.0081C5.42123 26.9122 5.22933 26.7682 5.0854 26.5284L4.55766 25.8568H4.41374V26.8162C4.41374 26.8642 4.41374 26.9122 4.46171 26.9601C4.50969 27.0081 4.60564 27.0081 4.74957 27.0081V27.152C4.60564 27.152 4.41374 27.152 4.17386 27.152C3.93398 27.152 3.74207 27.152 3.59814 27.152V27.0081C3.74207 27.0081 3.83802 26.9601 3.886 26.9601C3.93398 26.9122 3.93398 26.9122 3.93398 26.8162V24.5136C3.93398 24.4176 3.886 24.3697 3.83802 24.3217C3.79005 24.2737 3.6941 24.2257 3.59814 24.2257V24.0818C3.79005 24.0818 3.93398 24.0818 4.02993 24.0818H4.46171C4.55766 24.0818 4.65362 24.0818 4.74957 24.0818C5.56516 24.0818 5.94897 24.3697 5.94897 24.8974C5.94897 25.0892 5.85302 25.2332 5.70909 25.3771C5.56516 25.521 5.32528 25.6169 4.98945 25.7129L5.42123 26.3845C5.56516 26.5764 5.70909 26.7203 5.85302 26.8162ZM4.41374 25.7129H4.55766C4.8935 25.6649 5.18135 25.569 5.32528 25.425C5.46921 25.2811 5.51718 25.1372 5.51718 24.8974C5.51718 24.7055 5.46921 24.5616 5.32528 24.4656C5.22933 24.3697 5.03742 24.2737 4.79754 24.2737C4.55766 24.2737 4.41374 24.2737 4.36576 24.2737V25.7129H4.41374Z" fill="#E4E6EB"/>
<path d="M9.787 26.8641C9.787 26.9121 9.83498 26.9121 9.88295 26.9601C9.93093 26.9601 10.0269 27.0081 10.1228 27.0081V27.152C9.9789 27.152 9.787 27.152 9.54712 27.152C9.30724 27.152 9.06736 27.152 8.97141 27.152V27.0081C9.06736 27.0081 9.16331 26.9601 9.21129 26.9601C9.25926 26.9601 9.25926 26.9121 9.25926 26.8641C9.25926 26.8641 9.25926 26.8162 9.25926 26.7682C9.25926 26.7202 9.25926 26.7202 9.21129 26.6723L8.97141 26.0486H7.91594L7.67606 26.6723V26.7202C7.67606 26.7682 7.72403 26.8162 7.77201 26.8641C7.81998 26.9121 7.91594 26.9121 8.05986 26.9121V27.056C7.96391 27.056 7.77201 27.056 7.53213 27.056C7.29225 27.056 7.14832 27.056 7.05237 27.056V26.9121C7.1963 26.9121 7.29225 26.8641 7.3882 26.8162C7.43618 26.7682 7.53213 26.6723 7.53213 26.5763L8.3957 23.9858H8.63558L9.5951 26.5763C9.73902 26.7682 9.73902 26.8162 9.787 26.8641ZM8.97141 25.9527L8.49165 24.5615L8.01189 25.9527H8.97141Z" fill="#E4E6EB"/>
<path d="M13.3852 24.1298C13.4812 24.1298 13.6731 24.1298 13.913 24.1298V24.2737C13.7691 24.2737 13.6251 24.3217 13.5771 24.3217C13.5292 24.3217 13.4812 24.3696 13.4812 24.4176V27.104H13.3373L11.6581 24.5136V26.8162C11.6581 26.8642 11.7061 26.9122 11.7541 26.9601C11.802 26.9601 11.946 27.0081 12.0899 27.0081V27.152C11.9939 27.152 11.802 27.152 11.5622 27.152C11.3223 27.152 11.1784 27.152 11.0344 27.152V27.0081C11.1784 27.0081 11.3223 26.9601 11.3703 26.9601C11.4182 26.9601 11.4662 26.9122 11.4662 26.8162V24.4656C11.4662 24.4176 11.4182 24.3696 11.3703 24.3217C11.3223 24.2737 11.2263 24.2737 11.0824 24.2737V24.1298C11.2743 24.1298 11.4182 24.1298 11.5142 24.1298C11.6101 24.1298 11.7541 24.1298 11.946 24.1298L13.3373 26.2405V24.4176C13.3373 24.3696 13.2893 24.3217 13.2413 24.3217C13.1933 24.3217 13.0494 24.2737 12.9055 24.2737V24.1298C13.0974 24.1298 13.2413 24.1298 13.3852 24.1298Z" fill="#E4E6EB"/>
<path d="M17.1276 24.4656C17.4154 24.7055 17.5593 25.0892 17.5593 25.5689C17.5593 25.9047 17.5114 26.1446 17.3674 26.3845C17.2235 26.6243 17.0796 26.7682 16.8397 26.9122C16.6478 27.0081 16.4079 27.104 16.168 27.104C16.0721 27.104 15.9282 27.104 15.7842 27.0561C15.6403 27.0561 15.5443 27.0081 15.4484 27.0081C15.3524 27.0081 15.2565 27.0081 15.1605 27.0081C15.0646 27.0081 14.9686 27.0561 14.8247 27.0561V26.9122C14.9686 26.8642 15.0646 26.8642 15.1126 26.8162C15.1605 26.7682 15.2085 26.7203 15.2085 26.6723V24.5136C15.2085 24.4176 15.2085 24.3696 15.1605 24.3217C15.1126 24.2737 15.0166 24.2737 14.9207 24.2257V24.0818C15.1126 24.0818 15.2565 24.0818 15.3045 24.0818C15.4484 24.0818 15.5443 24.0818 15.6403 24.0818H15.9761C16.4559 24.0818 16.8397 24.2257 17.1276 24.4656ZM17.0316 25.6169C17.0316 25.2331 16.9356 24.8973 16.7917 24.6575C16.5998 24.4176 16.3599 24.2737 16.0241 24.2737C15.8802 24.2737 15.7842 24.2737 15.6883 24.2737V26.7203C15.6883 26.8162 15.7363 26.8642 15.8322 26.9122C15.9282 26.9601 16.0241 26.9601 16.168 26.9601C16.7437 26.9601 17.0316 26.4804 17.0316 25.6169Z" fill="#E4E6EB"/>
<path d="M21.877 26.0487C21.7811 25.9527 21.5892 25.8568 21.3493 25.7608C21.0614 25.6169 20.8695 25.521 20.7256 25.3771C20.5817 25.2332 20.4857 25.0413 20.4857 24.8014C20.4857 24.6575 20.5337 24.5136 20.5817 24.4176C20.6296 24.3217 20.7736 24.2257 20.9175 24.1298C21.0614 24.0818 21.2054 24.0339 21.3973 24.0339C21.4932 24.0339 21.5892 24.0339 21.6371 24.0339C21.6851 24.0339 21.7811 24.0818 21.877 24.0818C21.925 24.0818 21.973 24.1298 22.021 24.1298C22.0689 24.1298 22.0689 24.1298 22.0689 24.1298L22.1169 24.0818H22.2608L22.3088 24.7055H22.2129C22.1649 24.7055 22.1649 24.7055 22.1649 24.7055L22.1169 24.6575C22.0689 24.5136 21.973 24.4176 21.829 24.3217C21.6851 24.2257 21.5892 24.1778 21.4452 24.1778C21.3013 24.1778 21.1574 24.2257 21.0614 24.3217C20.9655 24.4176 20.9175 24.5136 20.9175 24.6575C20.9175 24.8014 20.9655 24.9453 21.0614 25.0413C21.1574 25.1372 21.3013 25.2332 21.5412 25.3291L21.6371 25.3771C21.829 25.473 21.973 25.521 22.1169 25.6169C22.2608 25.7129 22.3568 25.8088 22.4527 25.9048C22.5487 26.0007 22.5967 26.1446 22.5967 26.3365C22.5967 26.5284 22.5487 26.6723 22.4527 26.8162C22.3568 26.9601 22.2608 27.0561 22.1169 27.1041C21.973 27.2 21.829 27.2 21.6851 27.2C21.5412 27.2 21.4452 27.2 21.3493 27.152C21.2533 27.1041 21.1574 27.1041 21.0614 27.0561C21.0135 27.0561 21.0135 27.0081 20.9655 27.0081C20.9175 27.0081 20.9175 27.0081 20.8695 27.0081C20.8215 27.0081 20.8215 27.0081 20.7736 27.0561C20.7256 27.0561 20.7256 27.1041 20.7256 27.152H20.5817L20.4857 26.4324H20.5817H20.6296C20.6296 26.4324 20.6296 26.4804 20.6776 26.4804C20.7256 26.6243 20.8215 26.7682 20.9655 26.8642C21.1094 26.9601 21.3013 27.0081 21.4932 27.0081C21.6371 27.0081 21.7811 26.9601 21.877 26.8642C21.973 26.7682 22.021 26.6243 22.021 26.4804C22.0689 26.2885 22.0209 26.1926 21.877 26.0487Z" fill="#E4E6EB"/>
<path d="M25.7632 24.0339L25.5713 24.7055H25.4273C25.4273 24.6095 25.4273 24.5615 25.4273 24.5136C25.4273 24.4176 25.4273 24.3217 25.3794 24.2737C25.3314 24.2257 25.2834 24.2257 25.2354 24.2257H24.8037V26.7683C24.8037 26.8162 24.8516 26.8642 24.8996 26.9122C24.9476 26.9601 25.0435 26.9601 25.1875 26.9601V27.1041C25.0435 27.1041 24.8516 27.1041 24.6117 27.1041C24.3719 27.1041 24.18 27.1041 24.036 27.1041V26.9601C24.18 26.9601 24.2759 26.9122 24.3239 26.9122C24.3719 26.8642 24.4198 26.8642 24.4198 26.7683V24.2257H24.036C23.9881 24.2257 23.8921 24.2257 23.8921 24.2737C23.8441 24.3217 23.7962 24.3217 23.7962 24.4176C23.7482 24.4656 23.7002 24.5615 23.6522 24.7055H23.5083L23.7002 24.0339H23.7962C23.8441 24.0339 23.9401 24.0818 23.9881 24.0818C24.036 24.0818 24.132 24.0818 24.2279 24.0818H25.3794C25.4753 24.0818 25.5713 24.0818 25.6192 24.0818C25.6672 24.0818 25.7152 24.0818 25.8111 24.0339H25.7632Z" fill="#E4E6EB"/>
<path d="M29.5053 24.2737C29.4573 24.2737 29.4093 24.3217 29.4093 24.4176V26.8162C29.4093 26.8642 29.4573 26.9122 29.5053 26.9601C29.5532 27.0081 29.6492 27.0081 29.7931 27.0081V27.152C29.6492 27.152 29.5053 27.152 29.3134 27.152C29.1215 27.152 29.0255 27.152 28.9296 27.152V27.0081C28.9775 26.9601 29.0255 26.9122 29.0255 26.8162V26.5764C28.9296 26.7203 28.8336 26.8642 28.6417 27.0081C28.4978 27.1041 28.2579 27.2 28.018 27.2C27.8261 27.2 27.6822 27.152 27.4903 27.0561C27.3463 26.9601 27.2504 26.8642 27.1544 26.7203C27.0585 26.5764 27.0105 26.3845 27.0105 26.2406V24.4656C27.0105 24.4176 26.9625 24.3697 26.9146 24.3217C26.8666 24.3217 26.7706 24.2737 26.6267 24.2737V24.1298C26.8666 24.1298 27.0585 24.1298 27.2024 24.1298C27.3463 24.1298 27.5383 24.1298 27.7781 24.1298V24.2737C27.6342 24.2737 27.5383 24.3217 27.4903 24.3217C27.4423 24.3217 27.3943 24.3697 27.3943 24.4656V26.2406C27.3943 26.4804 27.4423 26.6723 27.5383 26.8162C27.6342 26.9601 27.8261 27.0081 28.018 27.0081C28.2099 27.0081 28.3538 26.9601 28.4978 26.8162C28.6417 26.6723 28.7377 26.5284 28.8336 26.3845V24.4176C28.8336 24.3697 28.7856 24.3217 28.7377 24.2737C28.6897 24.2737 28.5937 24.2257 28.4498 24.2257V24.0818C28.6897 24.0818 28.8816 24.0818 29.0255 24.0818C29.1694 24.0818 29.3613 24.0818 29.6012 24.0818V24.2257C29.6492 24.2257 29.5532 24.2737 29.5053 24.2737Z" fill="#E4E6EB"/>
<path d="M33.0073 24.4656C33.2952 24.7055 33.4391 25.0892 33.4391 25.5689C33.4391 25.9047 33.3911 26.1446 33.2472 26.3845C33.1033 26.6243 32.9593 26.7682 32.7195 26.9122C32.5276 27.0081 32.2877 27.104 32.0478 27.104C31.9518 27.104 31.8079 27.104 31.664 27.0561C31.5201 27.0561 31.4241 27.0081 31.3282 27.0081C31.2322 27.0081 31.1363 27.0081 31.0403 27.0081C30.9443 27.0081 30.8484 27.0561 30.7045 27.0561V26.9122C30.8484 26.8642 30.9443 26.8642 30.9923 26.8162C31.0403 26.7682 31.0883 26.7203 31.0883 26.6723V24.5136C31.0883 24.4176 31.0883 24.3696 31.0403 24.3217C30.9923 24.2737 30.8964 24.2737 30.8004 24.2257V24.0818C30.9923 24.0818 31.1363 24.0818 31.1842 24.0818C31.3282 24.0818 31.4241 24.0818 31.5201 24.0818H31.8559C32.2877 24.0818 32.7195 24.2257 33.0073 24.4656ZM32.9114 25.6169C32.9114 25.2331 32.8154 24.8973 32.6715 24.6575C32.4796 24.4176 32.2397 24.2737 31.9039 24.2737C31.7599 24.2737 31.664 24.2737 31.568 24.2737V26.7203C31.568 26.8162 31.616 26.8642 31.712 26.9122C31.8079 26.9601 31.9039 26.9601 32.0478 26.9601C32.6235 26.9601 32.9114 26.4804 32.9114 25.6169Z" fill="#E4E6EB"/>
<path d="M35.3584 26.9122C35.4064 26.9601 35.5024 26.9601 35.6463 26.9601V27.1041C35.5024 27.1041 35.3105 27.1041 35.0706 27.1041C34.8307 27.1041 34.6388 27.1041 34.4949 27.1041V26.9601C34.6388 26.9601 34.7348 26.9122 34.7827 26.9122C34.8307 26.8642 34.8787 26.8642 34.8787 26.7683V24.3697C34.8787 24.3217 34.8307 24.2737 34.7827 24.2257C34.7348 24.2257 34.6388 24.1778 34.4949 24.1778V24.0339C34.7348 24.0339 34.9267 24.0339 35.0706 24.0339C35.2145 24.0339 35.4064 24.0339 35.6463 24.0339V24.1778C35.5024 24.1778 35.4064 24.2257 35.3584 24.2257C35.3105 24.2257 35.2625 24.2737 35.2625 24.3697V26.7683C35.3105 26.8642 35.3105 26.9122 35.3584 26.9122Z" fill="#E4E6EB"/>
<path d="M39.2444 26.3844C39.1484 26.6243 39.0045 26.8162 38.7646 26.9601C38.5727 27.104 38.3328 27.152 38.093 27.152C37.8531 27.152 37.6132 27.104 37.3733 26.9601C37.1814 26.8162 36.9895 26.6243 36.8936 26.3844C36.7976 26.1446 36.7017 25.8567 36.7017 25.5689C36.7017 25.2811 36.7496 24.9932 36.8456 24.7534C36.9415 24.5135 37.1334 24.3216 37.3253 24.1777C37.5173 24.0338 37.7571 23.9858 38.045 23.9858C38.2849 23.9858 38.5247 24.0338 38.7167 24.1777C38.9086 24.3216 39.0525 24.5135 39.1964 24.7534C39.2924 24.9932 39.3403 25.2331 39.3403 25.5209C39.3883 25.8567 39.3403 26.1446 39.2444 26.3844ZM38.6687 26.7202C38.8126 26.5283 38.9086 26.1925 38.9086 25.7128C38.9086 25.425 38.8606 25.1372 38.8126 24.9453C38.7167 24.7054 38.6207 24.5135 38.4768 24.4176C38.3328 24.2737 38.1889 24.2257 37.997 24.2257C37.7571 24.2257 37.6132 24.3216 37.4693 24.5135C37.3253 24.7054 37.2294 25.0412 37.2294 25.473C37.2294 25.7608 37.2774 26.0486 37.3253 26.2885C37.3733 26.5283 37.5173 26.7202 37.6612 26.8641C37.8051 27.0081 37.949 27.056 38.1409 27.056C38.3328 27.0081 38.5247 26.9121 38.6687 26.7202Z" fill="#E4E6EB"/>
<path d="M45.2414 25.0412C45.0974 25.1372 45.0015 25.2331 44.8576 25.3291C44.7136 25.377 44.5217 25.473 44.3298 25.5689C44.5217 25.5689 44.6656 25.6649 44.8096 25.8088C44.9535 25.9527 45.0015 26.0966 45.0015 26.2405C45.0015 26.4324 44.9535 26.5763 44.8096 26.7202C44.6656 26.8642 44.5217 26.9601 44.2818 27.056C44.0899 27.152 43.8501 27.152 43.6102 27.152C43.3703 27.152 43.1304 27.104 42.9385 27.056C42.7466 26.9601 42.5547 26.8642 42.4588 26.7202C42.3148 26.5763 42.2668 26.3844 42.2668 26.1926C42.2668 26.0486 42.3148 25.9047 42.3628 25.7608C42.4588 25.6649 42.5547 25.5689 42.6507 25.473C42.7466 25.425 42.8905 25.377 43.0345 25.377H43.1304C42.9385 25.3291 42.7946 25.2331 42.6986 25.1372C42.6027 25.0412 42.5547 24.8973 42.5547 24.7054C42.5547 24.5615 42.6027 24.4656 42.6507 24.3696C42.7466 24.2737 42.8426 24.1777 42.9865 24.1298C43.1304 24.0818 43.2743 24.0338 43.4662 24.0338C43.7061 24.0338 43.898 24.0818 44.042 24.2257C44.1859 24.3696 44.2818 24.5135 44.2818 24.7054C44.2818 24.8493 44.2339 24.9453 44.1859 25.0412C44.1379 25.1372 44.042 25.1851 43.946 25.1851C43.898 25.1851 43.8501 25.1851 43.8021 25.1372C43.7061 25.0892 43.6582 25.0412 43.6582 24.9933C43.6582 24.9453 43.6582 24.9453 43.6582 24.8973C43.6582 24.8973 43.7061 24.8493 43.7061 24.8014C43.7541 24.7534 43.8021 24.7054 43.8021 24.6575C43.8021 24.6095 43.8501 24.5615 43.8501 24.4656C43.8501 24.3696 43.8021 24.2737 43.7541 24.1777C43.6581 24.1298 43.5622 24.0818 43.4662 24.0818C43.3223 24.0818 43.2264 24.1298 43.1304 24.2257C43.0345 24.3217 43.0345 24.4656 43.0345 24.6575C43.0345 24.8014 43.0824 24.9453 43.1784 25.0892C43.2743 25.2331 43.3703 25.2811 43.5622 25.3291L43.5142 25.473H43.4662C43.4662 25.473 43.4183 25.473 43.3703 25.473C43.2264 25.473 43.0824 25.5209 42.9385 25.6649C42.8426 25.8088 42.7466 25.9527 42.7466 26.1446C42.7466 26.2885 42.7946 26.4324 42.8426 26.5763C42.8905 26.7202 43.0345 26.8162 43.1304 26.8642C43.2743 26.9601 43.4183 26.9601 43.6102 26.9601C43.8021 26.9601 43.946 26.9121 44.0899 26.8642C44.2339 26.7682 44.3298 26.6723 44.4258 26.5763C44.5217 26.4324 44.5217 26.2885 44.5217 26.1446C44.5217 26.0007 44.4737 25.9047 44.4258 25.8088C44.3778 25.7128 44.2818 25.6649 44.1859 25.6649C44.0899 25.6649 44.042 25.6649 43.994 25.7128C43.946 25.7608 43.946 25.8088 43.946 25.8567C43.946 25.9047 43.946 25.9527 43.994 26.0007H43.8501C43.8021 26.0007 43.8021 25.9527 43.7541 25.9047C43.7061 25.8568 43.7061 25.8088 43.7061 25.7608C43.7061 25.7128 43.7541 25.6169 43.8021 25.5689C43.8501 25.5209 43.946 25.473 44.042 25.377L44.6177 24.9933C44.7616 24.8973 44.8576 24.8014 44.9055 24.7534C44.9535 24.7054 45.0015 24.5615 45.0015 24.4656C45.0015 24.3696 44.9535 24.2737 44.9055 24.2257C44.8576 24.1777 44.7616 24.1298 44.6656 24.1298C44.6177 24.1298 44.5697 24.1298 44.5217 24.1298H44.4737C44.4737 24.1298 44.4258 24.1298 44.4258 24.0818V24.0338C44.4258 24.0338 44.4258 23.9859 44.4737 23.9859C44.6177 23.9379 44.7136 23.8899 44.8096 23.8899C44.9055 23.8899 45.0015 23.8899 45.0974 23.9379C45.1934 23.9859 45.2414 24.0338 45.3373 24.1298C45.3853 24.2257 45.4333 24.3217 45.4333 24.4176C45.4333 24.8014 45.3853 24.9453 45.2414 25.0412Z" fill="#E4E6EB"/>
<path d="M50.5187 24.4656C50.8065 24.7055 50.9504 25.0892 50.9504 25.5689C50.9504 25.9047 50.9025 26.1446 50.7585 26.3845C50.6146 26.6243 50.4707 26.7682 50.2308 26.9122C50.0389 27.0081 49.799 27.104 49.5591 27.104C49.4632 27.104 49.3193 27.104 49.1753 27.0561C49.0314 27.0561 48.9355 27.0081 48.8395 27.0081C48.7436 27.0081 48.6476 27.0081 48.5517 27.0081C48.4557 27.0081 48.3597 27.0561 48.2158 27.0561V26.9122C48.3597 26.8642 48.4557 26.8642 48.5037 26.8162C48.5517 26.7682 48.5996 26.7203 48.5996 26.6723V24.5136C48.5996 24.4176 48.5996 24.3696 48.5517 24.3217C48.5037 24.2737 48.4077 24.2737 48.3118 24.2257V24.0818C48.5037 24.0818 48.6476 24.0818 48.6956 24.0818C48.8395 24.0818 48.9355 24.0818 49.0314 24.0818H49.3672C49.847 24.0818 50.2308 24.2257 50.5187 24.4656ZM50.4707 25.6169C50.4707 25.2331 50.3747 24.8973 50.2308 24.6575C50.0389 24.4176 49.799 24.2737 49.4632 24.2737C49.3193 24.2737 49.2233 24.2737 49.1274 24.2737V26.7203C49.1274 26.8162 49.1753 26.8642 49.2713 26.9122C49.3672 26.9601 49.4632 26.9601 49.6071 26.9601C50.1349 26.9601 50.4707 26.4804 50.4707 25.6169Z" fill="#E4E6EB"/>
<path d="M52.9174 26.9122C52.9654 26.9601 53.0613 26.9601 53.2053 26.9601V27.1041C53.0613 27.1041 52.8694 27.1041 52.6295 27.1041C52.3897 27.1041 52.1978 27.1041 52.0538 27.1041V26.9601C52.1978 26.9601 52.2937 26.9122 52.3417 26.9122C52.3897 26.8642 52.4376 26.8642 52.4376 26.7683V24.3697C52.4376 24.3217 52.3897 24.2737 52.3417 24.2257C52.2937 24.2257 52.1978 24.1778 52.0538 24.1778V24.0339C52.2937 24.0339 52.4856 24.0339 52.6295 24.0339C52.7735 24.0339 52.9654 24.0339 53.2053 24.0339V24.1778C53.0613 24.1778 52.9654 24.2257 52.9174 24.2257C52.8694 24.2257 52.8215 24.2737 52.8215 24.3697V26.7683C52.8694 26.8642 52.8694 26.9122 52.9174 26.9122Z" fill="#E4E6EB"/>
<path d="M56.4676 25.6649C56.7555 25.6649 56.9474 25.6649 57.0913 25.6649V25.8088H56.9474C56.8514 25.8088 56.8035 25.8567 56.8035 25.9047C56.8035 25.9527 56.7555 26.0486 56.7555 26.1925V26.4324C56.7555 26.5763 56.7555 26.7202 56.7555 26.8641H56.8514C56.8514 26.8641 56.8994 26.8641 56.8994 26.9121V27.0081C56.8514 27.0081 56.7555 27.0081 56.7075 27.0081C56.6116 27.0081 56.5636 27.0081 56.5156 27.0081C56.4676 27.0081 56.3717 27.056 56.3237 27.056C56.2278 27.104 56.1318 27.104 56.0359 27.104C55.9399 27.104 55.8439 27.152 55.7 27.152C55.4122 27.152 55.1723 27.104 54.9324 26.9601C54.6925 26.8162 54.5486 26.6243 54.4526 26.3844C54.3567 26.1446 54.2607 25.8567 54.2607 25.5689C54.2607 25.2811 54.3087 24.9932 54.4526 24.7534C54.5486 24.5135 54.7405 24.3216 54.9324 24.1777C55.1243 24.0338 55.3642 23.9858 55.652 23.9858C55.748 23.9858 55.8919 23.9858 56.0359 24.0338C56.1318 24.0818 56.2757 24.0818 56.3717 24.0818C56.4197 24.0818 56.4676 24.0818 56.5156 24.0818C56.5636 24.3696 56.6595 24.6574 56.7555 24.8973H56.5156C56.4197 24.6574 56.2757 24.4656 56.1318 24.3216C55.9879 24.1777 55.796 24.1298 55.5561 24.1298C55.3162 24.1298 55.1243 24.2257 54.9804 24.4176C54.8365 24.6095 54.7405 24.9453 54.7405 25.377C54.7405 25.6648 54.7885 25.9527 54.8844 26.1925C54.9804 26.4324 55.0763 26.6243 55.2203 26.7202C55.3642 26.8641 55.5081 26.9121 55.7 26.9121C55.8919 26.9121 56.0359 26.8641 56.1318 26.8162C56.2278 26.7682 56.2757 26.6723 56.2757 26.5763C56.2757 26.4804 56.3237 26.2885 56.3237 26.0007C56.3237 25.9047 56.3237 25.8567 56.3237 25.8567C56.3237 25.8088 56.2757 25.8088 56.2757 25.7608C56.2278 25.7608 56.1798 25.7128 56.0838 25.7128H55.9399V25.5689C56.0838 25.6649 56.2278 25.6649 56.4676 25.6649Z" fill="#E4E6EB"/>
<path d="M58.9624 26.9122C59.0104 26.9601 59.1064 26.9601 59.2503 26.9601V27.1041C59.1064 27.1041 58.9145 27.1041 58.6746 27.1041C58.4347 27.1041 58.2428 27.1041 58.0989 27.1041V26.9601C58.2428 26.9601 58.3388 26.9122 58.3867 26.9122C58.4347 26.8642 58.4827 26.8642 58.4827 26.7683V24.3697C58.4827 24.3217 58.4347 24.2737 58.3867 24.2257C58.3388 24.2257 58.2428 24.1778 58.0989 24.1778V24.0339C58.3388 24.0339 58.5307 24.0339 58.6746 24.0339C58.8185 24.0339 59.0104 24.0339 59.2503 24.0339V24.1778C59.1064 24.1778 59.0104 24.2257 58.9624 24.2257C58.9145 24.2257 58.8665 24.2737 58.8665 24.3697V26.7683C58.9145 26.8642 58.9145 26.9122 58.9624 26.9122Z" fill="#E4E6EB"/>
<path d="M62.5605 24.0339L62.3686 24.7055H62.2247C62.2247 24.6095 62.2247 24.5615 62.2247 24.5136C62.2247 24.4176 62.2247 24.3217 62.1767 24.2737C62.1288 24.2257 62.0808 24.2257 62.0328 24.2257H61.601V26.7683C61.601 26.8162 61.649 26.8642 61.697 26.9122C61.7449 26.9601 61.8409 26.9601 61.9848 26.9601V27.1041C61.8409 27.1041 61.649 27.1041 61.4091 27.1041C61.1692 27.1041 60.9773 27.1041 60.8334 27.1041V26.9601C60.9773 26.9601 61.0733 26.9122 61.1213 26.9122C61.1692 26.8642 61.2172 26.8642 61.2172 26.7683V24.2257H60.8334C60.7854 24.2257 60.6895 24.2257 60.6895 24.2737C60.6415 24.3217 60.5935 24.3217 60.5935 24.4176C60.5455 24.4656 60.4976 24.5615 60.4496 24.7055H60.3057L60.4976 24.0339H60.5935C60.6415 24.0339 60.7374 24.0818 60.7854 24.0818C60.8334 24.0818 60.9294 24.0818 61.0253 24.0818H62.1767C62.2727 24.0818 62.3686 24.0818 62.4166 24.0818C62.4646 24.0818 62.5126 24.0818 62.6085 24.0339H62.5605Z" fill="#E4E6EB"/>
<path d="M65.7752 26.8641C65.7752 26.9121 65.8231 26.9121 65.8711 26.9601C65.9191 26.9601 66.015 27.0081 66.111 27.0081V27.152C65.9671 27.152 65.7752 27.152 65.5353 27.152C65.2954 27.152 65.0555 27.152 64.9596 27.152V27.0081C65.0555 27.0081 65.1515 26.9601 65.1994 26.9601C65.2474 26.9601 65.2474 26.9121 65.2474 26.8641C65.2474 26.8641 65.2474 26.8162 65.2474 26.7682C65.2474 26.7202 65.2474 26.7202 65.1994 26.6723L64.9596 26.0486H63.9041L63.6642 26.6723V26.7202C63.6642 26.7682 63.7122 26.8162 63.7602 26.8641C63.8081 26.9121 63.9041 26.9121 64.048 26.9121V27.056C63.9521 27.056 63.7602 27.056 63.5203 27.056C63.2804 27.056 63.1365 27.056 63.0405 27.056V26.9121C63.1845 26.9121 63.2804 26.8641 63.3764 26.8162C63.4243 26.7682 63.5203 26.6723 63.5203 26.5763L64.3839 23.9858H64.6237L65.5833 26.5763C65.7272 26.7682 65.7752 26.8162 65.7752 26.8641ZM64.9596 25.9527L64.4798 24.5615L64 25.9527H64.9596Z" fill="#E4E6EB"/>
<path d="M69.3733 26.3365C69.2773 26.5764 69.2294 26.8162 69.2294 27.0561C68.9895 27.0561 68.6536 27.0561 68.1739 27.0561C67.7421 27.0561 67.3583 27.0561 67.1184 27.0561V26.9122C67.2623 26.9122 67.3583 26.8642 67.4063 26.8642C67.4542 26.8642 67.4542 26.8162 67.4542 26.7682V24.3697C67.4542 24.3217 67.4063 24.2737 67.3583 24.2257C67.3103 24.2257 67.2144 24.1778 67.0704 24.1778V24.0339C67.3103 24.0339 67.5022 24.0339 67.6461 24.0339C67.7901 24.0339 67.982 24.0339 68.2219 24.0339V24.1778C68.0779 24.1778 67.982 24.2257 67.934 24.2257C67.886 24.2257 67.838 24.2737 67.838 24.3697V26.9122C67.838 26.9601 67.838 26.9601 67.886 26.9601H68.4617C68.6057 26.9601 68.7016 26.9601 68.7976 26.9122C68.8935 26.8642 68.9415 26.8162 68.9895 26.6723L69.1334 26.3845H69.3733V26.3365Z" fill="#E4E6EB"/>
<path d="M74.8905 26.2885C74.7466 26.5763 74.6026 26.8162 74.5547 27.056C74.5067 27.056 74.4587 27.056 74.4107 27.056C74.3148 27.056 74.2188 27.056 74.0749 27.104C73.979 27.104 73.931 27.152 73.883 27.152C73.835 27.152 73.7391 27.152 73.6911 27.152C73.4032 27.152 73.1634 27.104 72.9235 26.9601C72.6836 26.8162 72.5397 26.6243 72.4437 26.3844C72.3478 26.1446 72.2518 25.8567 72.2518 25.5689C72.2518 25.2811 72.2998 24.9932 72.4437 24.7534C72.5877 24.5135 72.7316 24.3216 72.9235 24.1777C73.1154 24.0338 73.3553 23.9858 73.6431 23.9858C73.7391 23.9858 73.883 23.9858 74.0269 24.0338C74.1709 24.0818 74.2668 24.0818 74.3628 24.0818C74.4107 24.0818 74.4587 24.0818 74.5067 24.0818C74.5547 24.3696 74.6506 24.6574 74.7466 24.8973H74.5067C74.4107 24.6574 74.2668 24.4656 74.1229 24.3216C73.979 24.1777 73.7871 24.1298 73.5472 24.1298C73.3073 24.1298 73.1154 24.2257 72.9715 24.4176C72.8275 24.6095 72.7316 24.9453 72.7316 25.377C72.7316 25.6648 72.7796 25.9527 72.8755 26.1925C72.9715 26.4324 73.0674 26.6243 73.2113 26.7202C73.3553 26.8641 73.4992 26.9121 73.6911 26.9121C73.883 26.9121 74.0269 26.8641 74.1709 26.7202C74.3148 26.6243 74.4587 26.4324 74.6026 26.1925H74.8905V26.2885Z" fill="#E4E6EB"/>
<path d="M78.4408 26.3844C78.3448 26.6243 78.2009 26.8162 77.961 26.9601C77.7691 27.104 77.5293 27.152 77.2894 27.152C77.0495 27.152 76.8096 27.104 76.5697 26.9601C76.3778 26.8162 76.1859 26.6243 76.09 26.3844C75.994 26.1446 75.8981 25.8567 75.8981 25.5689C75.8981 25.2811 75.946 24.9932 76.042 24.7534C76.138 24.5135 76.3299 24.3216 76.5218 24.1777C76.7137 24.0338 76.9535 23.9858 77.2414 23.9858C77.4813 23.9858 77.7212 24.0338 77.9131 24.1777C78.105 24.3216 78.2489 24.5135 78.3928 24.7534C78.4888 24.9932 78.5368 25.2331 78.5368 25.5209C78.5847 25.8567 78.5368 26.1446 78.4408 26.3844ZM77.8651 26.7202C78.009 26.5283 78.105 26.1925 78.105 25.7128C78.105 25.425 78.057 25.1372 78.009 24.9453C77.9131 24.7054 77.8171 24.5135 77.6732 24.4176C77.5293 24.2737 77.3853 24.2257 77.1934 24.2257C76.9535 24.2257 76.8096 24.3216 76.6657 24.5135C76.5218 24.7054 76.4258 25.0412 76.4258 25.473C76.4258 25.7608 76.4738 26.0486 76.5218 26.2885C76.6177 26.5283 76.7137 26.7202 76.8576 26.8641C77.0015 27.0081 77.1454 27.056 77.3374 27.056C77.5293 27.0081 77.7212 26.9121 77.8651 26.7202Z" fill="#E4E6EB"/>
<path d="M81.847 24.1298C81.943 24.1298 82.1349 24.1298 82.3748 24.1298V24.2737C82.2308 24.2737 82.0869 24.3217 82.0389 24.3217C81.991 24.3217 81.943 24.3696 81.943 24.4176V27.104H81.7991L80.1199 24.5136V26.8162C80.1199 26.8642 80.1679 26.9122 80.2159 26.9601C80.2638 26.9601 80.4078 27.0081 80.5517 27.0081V27.152C80.4557 27.152 80.2638 27.152 80.024 27.152C79.7841 27.152 79.6401 27.152 79.4962 27.152V27.0081C79.6401 27.0081 79.7841 26.9601 79.832 26.9601C79.88 26.9601 79.928 26.9122 79.928 26.8162V24.4656C79.928 24.4176 79.88 24.3696 79.832 24.3217C79.7841 24.2737 79.6881 24.2737 79.5442 24.2737V24.1298C79.7361 24.1298 79.88 24.1298 79.976 24.1298C80.0719 24.1298 80.2159 24.1298 80.4078 24.1298L81.7991 26.2405V24.4176C81.7991 24.3696 81.7511 24.3217 81.7031 24.3217C81.6551 24.3217 81.5112 24.2737 81.3673 24.2737V24.1298C81.5592 24.1298 81.7031 24.1298 81.847 24.1298Z" fill="#E4E6EB"/>
<path d="M85.6371 24.0339L85.4452 24.7055H85.3012C85.3012 24.6095 85.3012 24.5615 85.3012 24.5136C85.3012 24.4176 85.3012 24.3217 85.2533 24.2737C85.2053 24.2257 85.1573 24.2257 85.1093 24.2257H84.6776V26.7683C84.6776 26.8162 84.7255 26.8642 84.7735 26.9122C84.8215 26.9601 84.9174 26.9601 85.0614 26.9601V27.1041C84.9174 27.1041 84.7255 27.1041 84.4857 27.1041C84.2458 27.1041 84.0539 27.1041 83.9099 27.1041V26.9601C84.0539 26.9601 84.1498 26.9122 84.1978 26.9122C84.2458 26.8642 84.2937 26.8642 84.2937 26.7683V24.2257H83.9099C83.862 24.2257 83.766 24.2257 83.766 24.2737C83.718 24.3217 83.6701 24.3217 83.6701 24.4176C83.6221 24.4656 83.5741 24.5615 83.5261 24.7055H83.3822L83.5741 24.0339H83.6701C83.718 24.0339 83.814 24.0818 83.862 24.0818C83.9099 24.0818 84.0059 24.0818 84.1018 24.0818H85.2533C85.3492 24.0818 85.4452 24.0818 85.4931 24.0818C85.5411 24.0818 85.5891 24.0818 85.6851 24.0339H85.6371Z" fill="#E4E6EB"/>
<path d="M88.8036 26.3365C88.7556 26.5284 88.7076 26.7682 88.6596 27.0561C88.1799 27.0561 87.8441 27.0561 87.6042 27.0561C87.4123 27.0561 87.0764 27.0561 86.5967 27.0561V26.9122C86.7406 26.9122 86.8366 26.8642 86.8845 26.8642C86.9325 26.8642 86.9325 26.8162 86.9325 26.7682V24.3697C86.9325 24.3217 86.9325 24.2737 86.8845 24.2257C86.8366 24.1778 86.7406 24.1778 86.5967 24.1778V24.0339H88.5637C88.6117 24.0339 88.6117 24.0339 88.6117 24.0339V24.0818L88.6596 24.6095H88.5157L88.4677 24.5136C88.4198 24.3697 88.3238 24.3217 88.2758 24.2257C88.1799 24.1778 88.0839 24.1298 87.988 24.1298H87.4123C87.4123 24.1298 87.4123 24.1298 87.3643 24.1298C87.3643 24.1298 87.3643 24.1298 87.3643 24.1778V25.3771H87.988C88.0839 25.3771 88.1799 25.3291 88.2279 25.2811C88.2758 25.2332 88.3238 25.1372 88.3238 25.0413H88.4677C88.4677 25.2332 88.4677 25.3291 88.4677 25.425C88.4677 25.521 88.4677 25.6649 88.4677 25.8088H88.3238C88.2758 25.7129 88.2758 25.6169 88.2279 25.569C88.1799 25.521 88.1319 25.473 87.988 25.473H87.3643V26.9122C87.3643 26.9601 87.3643 26.9601 87.4123 26.9601H87.94C88.0839 26.9601 88.1799 26.9601 88.2758 26.9122C88.3718 26.8642 88.4198 26.8162 88.4677 26.6723L88.6117 26.3845H88.8036V26.3365Z" fill="#E4E6EB"/>
<path d="M92.162 24.1298C92.2579 24.1298 92.4498 24.1298 92.6897 24.1298V24.2737C92.5458 24.2737 92.4019 24.3217 92.3539 24.3217C92.3059 24.3217 92.2579 24.3696 92.2579 24.4176V27.104H92.114L90.4348 24.5136V26.8162C90.4348 26.8642 90.4828 26.9122 90.5308 26.9601C90.5788 26.9601 90.7227 27.0081 90.8666 27.0081V27.152C90.7707 27.152 90.5788 27.152 90.3389 27.152C90.099 27.152 89.9551 27.152 89.8112 27.152V27.0081C89.9551 27.0081 90.099 26.9601 90.147 26.9601C90.195 26.9601 90.2429 26.9122 90.2429 26.8162V24.4656C90.2429 24.4176 90.195 24.3696 90.147 24.3217C90.099 24.2737 90.0031 24.2737 89.8591 24.2737V24.1298C90.051 24.1298 90.195 24.1298 90.2909 24.1298C90.3869 24.1298 90.5308 24.1298 90.7227 24.1298L92.114 26.2405V24.4176C92.114 24.3696 92.066 24.3217 92.0181 24.3217C91.9701 24.3217 91.8262 24.2737 91.6822 24.2737V24.1298C91.8741 24.1298 92.0181 24.1298 92.162 24.1298Z" fill="#E4E6EB"/>
<path d="M95.952 24.0339L95.7601 24.7055H95.6162C95.6162 24.6095 95.6162 24.5615 95.6162 24.5136C95.6162 24.4176 95.6162 24.3217 95.5682 24.2737C95.5202 24.2257 95.4722 24.2257 95.4243 24.2257H94.9925V26.7683C94.9925 26.8162 95.0405 26.8642 95.0884 26.9122C95.1364 26.9601 95.2324 26.9601 95.3763 26.9601V27.1041C95.2324 27.1041 95.0405 27.1041 94.8006 27.1041C94.5607 27.1041 94.3688 27.1041 94.2249 27.1041V26.9601C94.3688 26.9601 94.4648 26.9122 94.5127 26.9122C94.5607 26.8642 94.6087 26.8642 94.6087 26.7683V24.2257H94.2249C94.1769 24.2257 94.081 24.2257 94.081 24.2737C94.033 24.3217 93.985 24.3217 93.985 24.4176C93.937 24.4656 93.889 24.5615 93.8411 24.7055H93.6971L93.889 24.0339H93.985C94.033 24.0339 94.1289 24.0818 94.1769 24.0818C94.2249 24.0818 94.3208 24.0818 94.4168 24.0818H95.5682C95.6641 24.0818 95.7601 24.0818 95.8081 24.0818C95.8561 24.0818 95.904 24.0818 96 24.0339H95.952Z" fill="#E4E6EB"/>
</svg>
