<svg width="22" height="22" viewBox="0 0 22 22" fill="none" xmlns="http://www.w3.org/2000/svg">
<path d="M14.8603 6.16221H6.52783L9.21367 3.47638C11.4045 1.28554 12.5045 1.28554 14.6953 3.47638L15.2453 4.02638C14.6678 4.60388 14.5303 5.45638 14.8603 6.16221Z" stroke="#FFC929" stroke-width="1.25" stroke-linecap="round" stroke-linejoin="round"/>
<path d="M9.05566 6.16235L9.05566 19.9124" stroke="#FFC929" stroke-width="1.25" stroke-linecap="round" stroke-linejoin="round" stroke-dasharray="5 5"/>
<path d="M17.334 13.4679C17.334 14.6504 18.3057 15.6129 19.4882 15.6129C19.4882 19.0504 18.6265 19.9121 15.189 19.9121H6.59067C3.15317 19.9121 2.2915 19.0504 2.2915 15.6129V15.1913C3.474 15.1913 4.44567 14.2196 4.44567 13.0371C4.44567 11.8546 3.474 10.8829 2.2915 10.8829V10.4613C2.30067 7.02378 3.15317 6.16211 6.59067 6.16211H15.1798C18.6173 6.16211 19.479 7.02378 19.479 10.4613V11.3229C18.2965 11.3229 17.334 12.2763 17.334 13.4679Z" stroke="white" stroke-width="1.25" stroke-linecap="round" stroke-linejoin="round"/>
</svg>
