<?xml version="1.0" encoding="utf-8"?>
<!-- Generator: Adobe Illustrator 21.0.0, SVG Export Plug-In . SVG Version: 6.00 Build 0)  -->
<svg version="1.1" id="Capa_1" xmlns="http://www.w3.org/2000/svg" xmlns:xlink="http://www.w3.org/1999/xlink" x="0px" y="0px"
	 viewBox="0 0 415.7 86" style="enable-background:new 0 0 415.7 86;" xml:space="preserve">
<style type="text/css">
	.st0{fill:#18191A;}
	.st1{fill:url(#SVGID_1_);}
	.st2{fill:url(#SVGID_2_);}
	.st3{fill:url(#SVGID_3_);}
	.st4{fill:url(#SVGID_4_);}
	.st5{fill:url(#SVGID_5_);}
	.st6{fill:url(#SVGID_6_);}
	.st7{fill:#FBCD07;}
	.st8{fill:url(#SVGID_7_);}
	.st9{fill:url(#SVGID_8_);}
</style>
<title>logotype</title>
<g>
	<path class="st0" d="M115.9,59.6h-7.7L96.6,25.8h9.2l6.7,22.2l7.7-22.2h6.2l7.9,22.2l6.6-22.2h9.2l-11.5,33.8h-7.7l-7.7-21.2
		L115.9,59.6z"/>
	<path class="st0" d="M177,29.8v-4h8.3v33.9H177v-3.9c-2.8,3.1-6.7,4.8-10.8,4.8c-4.5,0.1-8.9-1.7-12.1-5.1s-4.8-7.7-4.8-12.8
		s1.6-9.4,4.8-12.6c3.1-3.3,7.4-5.2,12-5C170.3,24.9,174.3,26.6,177,29.8z M177.1,42.7c0-2.6-0.9-5-2.8-6.9
		c-3.7-3.8-9.7-3.8-13.5-0.1c-0.1,0.1-0.1,0.1-0.1,0.1c-1.7,1.8-2.7,4.3-2.6,6.9c-0.1,2.6,0.9,5.1,2.7,6.9c3.6,3.8,9.6,3.8,13.4,0.2
		c0.1-0.1,0.1-0.1,0.2-0.2C176.2,47.8,177.1,45.3,177.1,42.7z"/>
	<path class="st0" d="M212.7,50.7l2.6,6.9c-3,1.9-6.5,2.9-10,2.8c-3.9,0-6.9-1.1-8.9-3.4c-2-2.3-3-5.6-3-9.9v-14h-5.5v-7.3h5.6V13.7
		h8.7v12h11.2V33h-11.2v13.5c0,4,1.6,6,4.8,6C209,52.4,211,51.9,212.7,50.7z"/>
	<path class="st0" d="M232.6,60.5c-5.2,0-9.6-1.6-13-5c-3.4-3.3-5.1-7.6-5-12.8c0-5.2,1.7-9.5,5.1-12.8c3.5-3.3,7.8-5,13.1-5
		c3.3-0.1,6.6,0.9,9.5,2.5c2.8,1.6,5,4,6.3,7l-7,3.8c-2.1-3.5-5-5.2-8.6-5.2c-2.6-0.1-5.1,0.9-6.9,2.8c-1.8,1.8-2.8,4.3-2.8,6.8
		c-0.1,2.6,0.9,5.1,2.7,6.9c1.8,1.8,4.3,2.8,6.8,2.7c1.8,0,3.5-0.5,5.1-1.4c1.5-0.9,2.8-2.1,3.5-3.7l7.1,4.2c-1.5,2.8-3.7,5-6.5,6.5
		C239.2,59.6,235.9,60.5,232.6,60.5z"/>
	<path class="st0" d="M260.2,59.7h-8.8V12.4h8.5v17.8c1-1.7,2.6-3,4.3-3.8c2-1,4.2-1.5,6.4-1.5c3.5-0.1,6.8,1.3,9.4,3.7
		c2.6,2.5,3.8,6,3.8,10.4v20.7h-8.7V41.3c0-2.6-0.6-4.8-1.9-6.2c-1.3-1.5-3.2-2.3-5.2-2.2c-2.1-0.1-4.2,0.8-5.6,2.4
		c-1.5,1.7-2.2,3.9-2.1,6.2L260.2,59.7z"/>
	
		<linearGradient id="SVGID_1_" gradientUnits="userSpaceOnUse" x1="283.7751" y1="57.0974" x2="314.2452" y2="26.6273" gradientTransform="matrix(1 0 0 -1 0 88)">
		<stop  offset="0" style="stop-color:#FED302"/>
		<stop  offset="1" style="stop-color:#E4A424"/>
	</linearGradient>
	<path class="st1" d="M308.4,24.9c4.5-0.1,8.9,1.8,12,5.2c3.2,3.4,4.9,7.9,4.8,12.6c0.1,4.7-1.6,9.2-4.8,12.6c-3,3.4-7.4,5.2-12,5.2
		c-4,0.1-7.9-1.7-10.6-4.8v17.9H289V25.8h8.7V30C300.3,26.7,304.3,24.9,308.4,24.9z M306.8,52.4c2.6,0.1,5-0.9,6.8-2.8
		c1.8-1.8,2.7-4.3,2.6-6.9c0.1-2.6-0.9-5-2.6-6.9c-3.8-3.7-9.7-3.7-13.5,0c-1.8,1.8-2.7,4.3-2.6,6.9c-0.1,2.6,0.9,5,2.6,6.9
		C301.9,51.5,304.3,52.5,306.8,52.4L306.8,52.4z"/>
	
		<linearGradient id="SVGID_2_" gradientUnits="userSpaceOnUse" x1="319.1854" y1="65.975" x2="347.2354" y2="37.925" gradientTransform="matrix(1 0 0 -1 0 88)">
		<stop  offset="0" style="stop-color:#FED302"/>
		<stop  offset="1" style="stop-color:#E4A424"/>
	</linearGradient>
	<path class="st2" d="M337.6,12.4v47.3h-8.8V12.4H337.6z"/>
	
		<linearGradient id="SVGID_3_" gradientUnits="userSpaceOnUse" x1="348.4933" y1="77.8172" x2="367.6932" y2="58.6172" gradientTransform="matrix(1 0 0 -1 0 88)">
		<stop  offset="0" style="stop-color:#FED302"/>
		<stop  offset="1" style="stop-color:#E4A424"/>
	</linearGradient>
	<path class="st3" d="M373.6,23.4h-31.1v-7.3h31.1V23.4z"/>
	
		<linearGradient id="SVGID_4_" gradientUnits="userSpaceOnUse" x1="343.7023" y1="63.3567" x2="372.508" y2="34.5508" gradientTransform="matrix(1 0 0 -1 0 88)">
		<stop  offset="0" style="stop-color:#FED302"/>
		<stop  offset="1" style="stop-color:#E4A424"/>
	</linearGradient>
	<path class="st4" d="M369.5,56.5c-2.8,2.6-6.6,4-11.4,4s-8.6-1.3-11.4-4s-4.1-6.4-4.1-11.1V25.8h8.8v19.6c-0.1,1.9,0.6,3.8,1.8,5.2
		c2.8,2.6,7.1,2.6,9.9,0c1.3-1.4,1.9-3.3,1.8-5.2V25.8h8.8v19.6C373.7,50.1,372.3,53.9,369.5,56.5z"/>
	
		<linearGradient id="SVGID_5_" gradientUnits="userSpaceOnUse" x1="378.0453" y1="57.2771" x2="402.3309" y2="32.9915" gradientTransform="matrix(1 0 0 -1 0 88)">
		<stop  offset="0" style="stop-color:#FED302"/>
		<stop  offset="1" style="stop-color:#E4A424"/>
	</linearGradient>
	<path class="st5" d="M389.9,60.5c-5.9,0-10.6-2.2-14-6.5l4.7-5.5c1.2,1.4,2.7,2.6,4.3,3.5c1.6,0.9,3.3,1.3,5,1.3
		c1.2,0.1,2.3-0.3,3.3-0.9c0.9-0.5,1.3-1.4,1.3-2.3c0-1.2-0.8-2.2-2.4-2.9c-0.5-0.2-1.8-0.7-4-1.6c-1.6-0.6-3-1.2-4.4-1.9
		c-3.9-1.8-5.9-4.8-5.9-8.8c-0.1-2.8,1.3-5.5,3.5-7.4c2.3-1.9,5.4-2.8,9.2-2.8c4.5-0.1,8.8,1.6,11.9,4.8l-4.3,5.7
		c-2.1-2.1-4.8-3.3-7.8-3.3c-1-0.1-2,0.3-2.8,0.9c-0.6,0.4-1.1,1.2-1.1,2.1c0,1.4,1,2.5,3,3.1c4.5,1.6,7.2,2.8,8.2,3.3
		c3.8,2,5.7,4.8,5.7,8.6c0.1,3-1.3,6-3.8,7.9C397.3,59.5,394,60.5,389.9,60.5z"/>
	
		<linearGradient id="SVGID_6_" gradientUnits="userSpaceOnUse" x1="407.0312" y1="35.9292" x2="414.2315" y2="28.7289" gradientTransform="matrix(1 0 0 -1 0 88)">
		<stop  offset="0" style="stop-color:#FED302"/>
		<stop  offset="1" style="stop-color:#E4A424"/>
	</linearGradient>
	<path class="st6" d="M410.7,60.7c-1.3,0-2.7-0.5-3.7-1.5c-1-0.9-1.6-2.3-1.5-3.6c0-1.3,0.5-2.6,1.5-3.5s2.3-1.5,3.7-1.4
		c1.3,0,2.6,0.5,3.5,1.4c1,0.9,1.5,2.2,1.5,3.5s-0.5,2.7-1.5,3.6C413.4,60.2,412.1,60.7,410.7,60.7z"/>
</g>
<g>
	<ellipse class="st7" cx="78.4" cy="24.9" rx="4.1" ry="4.1"/>
	<ellipse class="st7" cx="68.6" cy="12" rx="4.1" ry="4.1"/>
	<ellipse class="st7" cx="54.5" cy="4.1" rx="4.1" ry="4.1"/>
	
		<linearGradient id="SVGID_7_" gradientUnits="userSpaceOnUse" x1="23.2795" y1="816.3795" x2="67.6649" y2="816.3795" gradientTransform="matrix(1 0 0 1 0 -776.6901)">
		<stop  offset="0" style="stop-color:#FED302"/>
		<stop  offset="1" style="stop-color:#E4A424"/>
	</linearGradient>
	<path class="st8" d="M36.5,63.2c-2.2,0-4.4-0.5-6.3-1.7c-4.4-2.5-6.9-7.6-6.9-14V32c0-6.5,2.5-11.5,6.9-14.1s10-2.1,15.5,1.1
		L59,26.8c5.6,3.2,8.6,7.9,8.6,13s-3.2,9.7-8.6,12.9l-13.4,7.7C42.5,62.3,39.3,63.2,36.5,63.2z M36.5,25.4c-0.6,0-1.3,0.1-1.8,0.4
		c-1.5,0.9-2.3,3.1-2.3,6.2v15.5c0,3.1,0.8,5.4,2.3,6.2c1.5,0.9,3.8,0.5,6.5-1.1l13.4-7.7c2.6-1.5,4.2-3.4,4.2-5.1s-1.5-3.6-4.2-5.1
		l-13.3-7.7C39.3,25.9,37.7,25.4,36.5,25.4z"/>
	
		<linearGradient id="SVGID_8_" gradientUnits="userSpaceOnUse" x1="0" y1="838.7106" x2="86.4118" y2="838.7106" gradientTransform="matrix(1 0 0 1 0 -776.6901)">
		<stop  offset="0" style="stop-color:#FED302"/>
		<stop  offset="1" style="stop-color:#E4A424"/>
	</linearGradient>
	<path class="st9" d="M43.2,86C19.4,86,0,66.5,0,42.6C0,40.1,2,38,4.6,38s4.6,2,4.6,4.6c0,18.9,15.3,34.3,34.2,34.3
		s34.2-15.4,34.2-34.3c0-2.5,2-4.6,4.6-4.6c2.5,0,4.6,2,4.6,4.6C86.4,66.5,67,86,43.2,86z"/>
</g>
</svg>
