<?xml version="1.0" encoding="utf-8"?>
<!-- Generator: Adobe Illustrator 21.0.0, SVG Export Plug-In . SVG Version: 6.00 Build 0)  -->
<svg version="1.1" id="Capa_1" xmlns="http://www.w3.org/2000/svg" xmlns:xlink="http://www.w3.org/1999/xlink" x="0px" y="0px"
	 viewBox="0 0 86.8 86" style="enable-background:new 0 0 86.8 86;" xml:space="preserve">
<style type="text/css">
	.st0{fill:#FBCD07;}
	.st1{fill:url(#SVGID_1_);}
	.st2{fill:url(#SVGID_2_);}
</style>
<title>logotype</title>
<g>
	<ellipse class="st0" cx="78.4" cy="24.9" rx="4.1" ry="4.1"/>
	<ellipse class="st0" cx="68.6" cy="12" rx="4.1" ry="4.1"/>
	<ellipse class="st0" cx="54.5" cy="4.1" rx="4.1" ry="4.1"/>
	
		<linearGradient id="SVGID_1_" gradientUnits="userSpaceOnUse" x1="23.3" y1="-728.407" x2="67.6854" y2="-728.407" gradientTransform="matrix(1 0 0 -1 0 -688.6901)">
		<stop  offset="0" style="stop-color:#FED302"/>
		<stop  offset="1" style="stop-color:#E4A424"/>
	</linearGradient>
	<path class="st1" d="M36.5,63.2c-2.2,0-4.4-0.5-6.3-1.7c-4.4-2.5-6.9-7.6-6.9-14V32c0-6.5,2.5-11.5,6.9-14.1s10-2.1,15.5,1.1
		L59,26.8c5.6,3.2,8.6,7.9,8.6,13s-3.2,9.7-8.6,12.9l-13.4,7.7C42.5,62.3,39.3,63.2,36.5,63.2z M36.5,25.4c-0.6,0-1.3,0.1-1.8,0.4
		c-1.5,0.9-2.3,3.1-2.3,6.2v15.5c0,3.1,0.8,5.4,2.3,6.2c1.5,0.9,3.8,0.5,6.5-1.1l13.4-7.7c2.6-1.5,4.2-3.4,4.2-5.1s-1.5-3.6-4.2-5.1
		L41.3,27C39.3,25.9,37.7,25.4,36.5,25.4z"/>
	
		<linearGradient id="SVGID_2_" gradientUnits="userSpaceOnUse" x1="0" y1="-750.6901" x2="86.4118" y2="-750.6901" gradientTransform="matrix(1 0 0 -1 0 -688.6901)">
		<stop  offset="0" style="stop-color:#FED302"/>
		<stop  offset="1" style="stop-color:#E4A424"/>
	</linearGradient>
	<path class="st2" d="M43.2,86C19.4,86,0,66.5,0,42.6C0,40.1,2,38,4.6,38s4.6,2,4.6,4.6c0,18.9,15.3,34.3,34.2,34.3
		s34.2-15.4,34.2-34.3c0-2.5,2-4.6,4.6-4.6c2.5,0,4.6,2,4.6,4.6C86.4,66.5,67,86,43.2,86z"/>
</g>
</svg>
